<svg xmlns="http://www.w3.org/2000/svg" viewBox="0 0 32 32" width="32" height="32">
  <defs>
    <linearGradient id="carGradient" x1="0%" y1="0%" x2="100%" y2="100%">
      <stop offset="0%" style="stop-color:#FF8C00;stop-opacity:1" />
      <stop offset="100%" style="stop-color:#FF6347;stop-opacity:1" />
    </linearGradient>
  </defs>
  
  <!-- Car body -->
  <path d="M6 20 L6 18 C6 16.5 7 15 8.5 14 L10 13 L22 13 L23.5 14 C25 15 26 16.5 26 18 L26 20 C26 21 25 22 24 22 L23 22 C23 23.5 21.5 25 20 25 C18.5 25 17 23.5 17 22 L15 22 C15 23.5 13.5 25 12 25 C10.5 25 9 23.5 9 22 L8 22 C7 22 6 21 6 20 Z" fill="url(#carGradient)" stroke="#D2691E" stroke-width="1"/>
  
  <!-- Car top/cabin -->
  <path d="M10 13 L10 10 C10 9 11 8 12 8 L20 8 C21 8 22 9 22 10 L22 13 Z" fill="url(#carGradient)" stroke="#D2691E" stroke-width="1"/>
  
  <!-- Windows -->
  <rect x="11" y="9" width="10" height="3" rx="1" fill="#87CEEB" opacity="0.8"/>
  
  <!-- Wheels -->
  <circle cx="12" cy="22" r="2.5" fill="#2F4F4F" stroke="#1C1C1C" stroke-width="1"/>
  <circle cx="20" cy="22" r="2.5" fill="#2F4F4F" stroke="#1C1C1C" stroke-width="1"/>
  
  <!-- Wheel centers -->
  <circle cx="12" cy="22" r="1" fill="#C0C0C0"/>
  <circle cx="20" cy="22" r="1" fill="#C0C0C0"/>
  
  <!-- Headlight -->
  <circle cx="25" cy="16" r="1" fill="#FFFF99" stroke="#FFD700" stroke-width="0.5"/>
  
  <!-- Door handle -->
  <rect x="18" y="15" width="1" height="2" rx="0.5" fill="#D2691E"/>
</svg>
